<svg width="280" height="200" viewBox="0 0 280 200" fill="none" xmlns="http://www.w3.org/2000/svg">
<g clip-path="url(#clip0_7222_114798)">
<path d="M204.252 4.65523L210.147 0.977966" stroke="#98A2B3" stroke-width="2" stroke-linecap="round" stroke-linejoin="round"/>
<path d="M29.0986 117.917L174.397 23.9609" stroke="#98A2B3" stroke-width="2" stroke-linecap="round" stroke-linejoin="round"/>
<path d="M16.4366 60.6357L109 0.977966" stroke="#98A2B3" stroke-linecap="round" stroke-linejoin="round"/>
<path d="M25.1691 45.1929L84.5493 6.65015" stroke="#98A2B3" stroke-width="2" stroke-linecap="round" stroke-linejoin="round"/>
<path d="M26.4789 166.425L249.696 22.0927" stroke="#98A2B3" stroke-linecap="round" stroke-linejoin="round"/>
<path d="M62.6833 189.848L263.563 59.9509" stroke="#98A2B3" stroke-linecap="round" stroke-linejoin="round"/>
<path d="M133.8 190.709L258.953 109.78" stroke="#98A2B3" stroke-linecap="round" stroke-linejoin="round"/>
<path d="M192.569 199.511L250.308 162.181" stroke="#98A2B3" stroke-linecap="round" stroke-linejoin="round"/>
<path d="M192.054 20.6066L221.648 40.0981" stroke="#98A2B3" stroke-linecap="round" stroke-linejoin="round"/>
<path d="M34.0499 161.535L70.2544 184.949" stroke="#98A2B3" stroke-linecap="round" stroke-linejoin="round"/>
<path d="M168.922 167.98L205.135 191.393" stroke="#98A2B3" stroke-linecap="round" stroke-linejoin="round"/>
<path d="M214.61 91.6087L250.823 115.022" stroke="#98A2B3" stroke-linecap="round" stroke-linejoin="round"/>
<path d="M240.169 168.734L254.84 178.22" stroke="#98A2B3" stroke-linecap="round" stroke-linejoin="round"/>
<g opacity="0.5">
<path opacity="0.5" d="M221.7 37.0273L234.799 28.5481" stroke="#98A2B3" stroke-linecap="round" stroke-linejoin="round"/>
<path opacity="0.5" d="M237.935 26.5331L239.839 25.3008" stroke="#98A2B3" stroke-linecap="round" stroke-linejoin="round"/>
<path opacity="0.5" d="M32.9762 159.061L48.6246 148.939" stroke="#98A2B3" stroke-linecap="round" stroke-linejoin="round"/>
<path opacity="0.5" d="M55.5406 144.469L207.86 45.9658" stroke="#98A2B3" stroke-linecap="round" stroke-linejoin="round"/>
<path opacity="0.5" d="M211.755 43.4618L217.37 39.8237" stroke="#98A2B3" stroke-linecap="round" stroke-linejoin="round"/>
<path opacity="0.5" d="M70.2552 181.779L79.4941 175.814" stroke="#98A2B3" stroke-linecap="round" stroke-linejoin="round"/>
<path opacity="0.5" d="M86.0604 171.56L243.244 69.9266" stroke="#98A2B3" stroke-linecap="round" stroke-linejoin="round"/>
<path opacity="0.5" d="M246.911 67.5503L250.492 65.2325" stroke="#98A2B3" stroke-linecap="round" stroke-linejoin="round"/>
<path opacity="0.5" d="M252.517 63.9221L256.246 61.5162" stroke="#98A2B3" stroke-linecap="round" stroke-linejoin="round"/>
<path opacity="0.5" d="M52.0826 193.535L65.1812 185.056" stroke="#98A2B3" stroke-linecap="round" stroke-linejoin="round"/>
<path opacity="0.5" d="M250.824 111.854L263.564 103.609" stroke="#98A2B3" stroke-linecap="round" stroke-linejoin="round"/>
<path opacity="0.5" d="M121.985 195.159L148.305 178.142" stroke="#98A2B3" stroke-linecap="round" stroke-linejoin="round"/>
<path opacity="0.5" d="M154.846 173.927L191.426 150.279" stroke="#98A2B3" stroke-linecap="round" stroke-linejoin="round"/>
<path opacity="0.5" d="M194.508 148.264L197.338 146.435" stroke="#98A2B3" stroke-linecap="round" stroke-linejoin="round"/>
<path opacity="0.5" d="M201.511 143.765L228.503 126.318" stroke="#98A2B3" stroke-linecap="round" stroke-linejoin="round"/>
<path opacity="0.5" d="M231.428 124.391L246.448 114.679" stroke="#98A2B3" stroke-linecap="round" stroke-linejoin="round"/>
<path opacity="0.5" d="M205.136 188.225L219.902 178.67" stroke="#98A2B3" stroke-linecap="round" stroke-linejoin="round"/>
<path opacity="0.5" d="M227.395 173.829L237.271 167.443" stroke="#98A2B3" stroke-linecap="round" stroke-linejoin="round"/>
<path opacity="0.5" d="M187.671 199.511L200.315 191.335" stroke="#98A2B3" stroke-linecap="round" stroke-linejoin="round"/>
<path opacity="0.5" d="M194.481 19.0317L203.912 25.2518" stroke="#98A2B3" stroke-linecap="round" stroke-linejoin="round"/>
<path opacity="0.5" d="M206.698 27.0811L208.444 28.2449" stroke="#98A2B3" stroke-linecap="round" stroke-linejoin="round"/>
<path opacity="0.5" d="M214.636 32.2738L221.621 36.8997" stroke="#98A2B3" stroke-linecap="round" stroke-linejoin="round"/>
<path opacity="0.5" d="M38.8791 161.487L44.1185 164.9" stroke="#98A2B3" stroke-linecap="round" stroke-linejoin="round"/>
<path opacity="0.5" d="M52.0041 169.975L53.3227 170.836" stroke="#98A2B3" stroke-linecap="round" stroke-linejoin="round"/>
<path opacity="0.5" d="M56.772 173.105L70.2548 181.819" stroke="#98A2B3" stroke-linecap="round" stroke-linejoin="round"/>
<path opacity="0.5" d="M173.489 167.765L176.799 169.897" stroke="#98A2B3" stroke-linecap="round" stroke-linejoin="round"/>
<path opacity="0.5" d="M181.592 172.997L182.649 173.682" stroke="#98A2B3" stroke-linecap="round" stroke-linejoin="round"/>
<path opacity="0.5" d="M185.67 175.638L205.135 188.225" stroke="#98A2B3" stroke-linecap="round" stroke-linejoin="round"/>
<path opacity="0.5" d="M214.61 88.4398L250.823 111.853" stroke="#98A2B3" stroke-linecap="round" stroke-linejoin="round"/>
<path opacity="0.5" d="M244.571 168.411L251.732 173.037" stroke="#98A2B3" stroke-linecap="round" stroke-linejoin="round"/>
<path opacity="0.5" d="M250.824 115.022V113.369" stroke="#98A2B3" stroke-linecap="round" stroke-linejoin="round"/>
<path opacity="0.5" d="M205.136 191.393V189.946" stroke="#98A2B3" stroke-linecap="round" stroke-linejoin="round"/>
<path opacity="0.5" d="M70.2552 184.949V183.492" stroke="#98A2B3" stroke-linecap="round" stroke-linejoin="round"/>
<path opacity="0.5" d="M221.649 40.0977V38.5525" stroke="#98A2B3" stroke-linecap="round" stroke-linejoin="round"/>
</g>
<path d="M174.493 0.977966L174.397 23.9609L180.632 27.9902L204.253 12.7139L204.183 0.977966" stroke="#98A2B3" stroke-width="2" stroke-linecap="round" stroke-linejoin="round"/>
<path d="M180.632 25.1149V0.977966" stroke="#98A2B3" stroke-linecap="round" stroke-linejoin="round"/>
<path d="M62.7966 152.969V136.724L47.9603 127.101L56.1425 106.299L47.9603 111.58L62.7966 89.399L161.307 25.4088L217.203 61.6239L232.039 83.844L223.813 78.5823L232.039 99.3647L217.203 108.998V125.194L118.693 189.184L62.7966 152.969Z" fill="white"/>
<path d="M168.197 93.4478L161.307 88.9784L111.803 121.145" stroke="#98A2B3" stroke-linecap="round" stroke-linejoin="round"/>
<path d="M166.32 94.6702L169.909 92.3425L167.019 90.2888L163.587 92.5773L166.32 94.6702Z" fill="white"/>
<path d="M62.7968 89.399L161.307 25.4088L217.203 61.6239" stroke="#98A2B3" stroke-width="2" stroke-linecap="round" stroke-linejoin="round"/>
<path d="M217.203 108.998V125.193L118.693 189.184L62.7968 152.968V136.724" stroke="#98A2B3" stroke-width="2" stroke-linecap="round" stroke-linejoin="round"/>
<path d="M118.693 185.926V125.604" stroke="#98A2B3" stroke-linecap="round" stroke-linejoin="round"/>
<path d="M161.307 28.7238V88.9781" stroke="#98A2B3" stroke-linecap="round" stroke-linejoin="round"/>
<path d="M217.203 61.6232L232.039 99.3641L133.538 163.354L118.693 125.604" stroke="#98A2B3" stroke-width="2" stroke-linecap="round" stroke-linejoin="round"/>
<path d="M62.7966 89.35L47.9603 127.101L103.856 163.355L118.693 125.604" stroke="#98A2B3" stroke-width="2" stroke-linecap="round" stroke-linejoin="round"/>
<path d="M223.856 78.5621L232.039 83.8433L217.202 61.6232" stroke="#98A2B3" stroke-width="2" stroke-linecap="round" stroke-linejoin="round"/>
<path d="M56.1425 106.299L47.9603 111.58L62.7966 89.35" stroke="#98A2B3" stroke-width="2" stroke-linecap="round" stroke-linejoin="round"/>
<path d="M150.182 39.1L153.955 35.0511L160.871 39.9802L164.486 48.078L185.548 61.6331L185.705 79.413L182.247 82.6599L150.182 39.1Z" fill="white"/>
<path d="M94.7135 104.792L118.605 120.235L141.432 113.252L172.397 93.2325L183.199 78.4746V63.922L159.307 48.4795L136.481 55.4624L105.507 75.4819L94.7135 90.2399V104.792Z" fill="white"/>
<path d="M183.199 63.9211L172.397 78.6888L141.432 98.7084L118.605 105.691L96.9401 91.6864" stroke="#005096" stroke-linecap="round" stroke-linejoin="round"/>
<path d="M94.7135 104.792L118.605 120.235L136.481 113.447L170.66 91.4425L183.199 78.4746V63.922L159.307 48.4795L136.481 55.4624L105.507 75.4819L94.7135 90.2399V104.792Z" stroke="#005096" stroke-width="2" stroke-linecap="round" stroke-linejoin="round"/>
<path d="M118.606 107.492V120.235" stroke="#005096" stroke-linecap="round" stroke-linejoin="round"/>
<path d="M141.843 100.733L141.843 110.513" stroke="#005096" stroke-linecap="round" stroke-linejoin="round"/>
<path d="M172.406 81.1735L172.406 90.9535" stroke="#005096" stroke-linecap="round" stroke-linejoin="round"/>
<path d="M110.03 91.8629C110.991 91.2884 112.063 90.9879 113.152 90.9879C114.241 90.9879 115.313 91.2884 116.274 91.8629" stroke="#005096" stroke-linecap="round" stroke-linejoin="round"/>
<path d="M117.444 93.77C117.444 95.3055 115.514 96.5573 113.147 96.5573C110.781 96.5573 108.842 95.3055 108.842 93.77" stroke="#005096" stroke-width="2" stroke-linecap="round" stroke-linejoin="round"/>
<path d="M161.631 58.5128C162.581 57.8931 163.666 57.5816 164.766 57.6131C165.853 57.5846 166.927 57.8853 167.874 58.4835" stroke="#005096" stroke-linecap="round" stroke-linejoin="round"/>
<path d="M169.071 60.4303C169.071 61.9853 167.141 63.2469 164.765 63.2469C162.39 63.2469 160.469 61.9853 160.469 60.4303" stroke="#005096" stroke-width="2" stroke-linecap="round" stroke-linejoin="round"/>
<path d="M164.153 49.3983H161.533V79.4423H164.153V49.3983Z" fill="white"/>
<path d="M161.534 49.3983V77.0854C161.534 85.1441 151.422 91.6771 138.952 91.6771C126.482 91.6771 116.423 85.1441 116.423 77.0854V49.3983C116.423 41.3396 126.535 34.8066 138.996 34.8066C151.457 34.8066 161.534 41.3396 161.534 49.3983Z" fill="white"/>
<path d="M161.534 49.3983C161.534 57.4667 151.422 63.9997 138.952 63.9997C129.818 63.9997 121.95 60.4887 118.396 55.4423" stroke="#005096" stroke-linecap="round" stroke-linejoin="round"/>
<path d="M116.423 77.0854V49.3983C116.423 41.3396 126.535 34.8066 138.996 34.8066C151.457 34.8066 161.578 41.3396 161.578 49.3983V77.0854" stroke="#005096" stroke-width="2" stroke-linecap="round" stroke-linejoin="round"/>
<path d="M161.193 79.6281C159.333 86.4741 150.086 91.677 138.952 91.677C127.818 91.677 118.448 86.3958 116.684 79.4716" stroke="#005096" stroke-linecap="round" stroke-linejoin="round"/>
<path d="M127.425 47.1885C128.901 43.9709 133.538 41.6335 138.952 41.6335C144.366 41.6335 149.09 44.01 150.522 47.2667" stroke="#005096" stroke-linecap="round" stroke-linejoin="round"/>
<path d="M150.977 49.3983C150.977 53.6917 145.597 57.2222 138.952 57.2222C132.307 57.2222 126.901 53.6917 126.901 49.3983" stroke="#005096" stroke-width="2" stroke-linecap="round" stroke-linejoin="round"/>
<path d="M62.7968 89.3983L118.693 125.604L217.203 61.6232" stroke="#98A2B3" stroke-width="2" stroke-linecap="round" stroke-linejoin="round"/>
<path d="M130.167 154.777L123.889 158.836V178.885L154.085 159.364V150.005" stroke="#98A2B3" stroke-linecap="round" stroke-linejoin="round"/>
<path d="M212.251 121.888L170.982 148.568V143.619L212.251 116.939V121.888Z" fill="#D0D5DD"/>
<path d="M91.3258 160.616L66.8577 144.792V149.731L91.3258 165.555V160.616Z" fill="#D0D5DD"/>
<path d="M118.946 50.8557C123.417 50.8557 127.041 46.7967 127.041 41.7896C127.041 36.7826 123.417 32.7236 118.946 32.7236C114.476 32.7236 110.851 36.7826 110.851 41.7896C110.851 46.7967 114.476 50.8557 118.946 50.8557Z" fill="white"/>
<path d="M118.946 48.0199C122.018 48.0199 124.508 45.2307 124.508 41.7901C124.508 38.3494 122.018 35.5602 118.946 35.5602C115.874 35.5602 113.383 38.3494 113.383 41.7901C113.383 45.2307 115.874 48.0199 118.946 48.0199Z" fill="white" stroke="#005096" stroke-width="2" stroke-linecap="round" stroke-linejoin="round"/>
<path d="M183.138 79.824C187.609 79.824 191.233 75.765 191.233 70.758C191.233 65.7509 187.609 61.692 183.138 61.692C178.667 61.692 175.043 65.7509 175.043 70.758C175.043 75.765 178.667 79.824 183.138 79.824Z" fill="white"/>
<path d="M183.138 76.9882C186.21 76.9882 188.701 74.199 188.701 70.7584C188.701 67.3177 186.21 64.5286 183.138 64.5286C180.066 64.5286 177.576 67.3177 177.576 70.7584C177.576 74.199 180.066 76.9882 183.138 76.9882Z" fill="white" stroke="#005096" stroke-width="2" stroke-linecap="round" stroke-linejoin="round"/>
<path d="M94.5306 102.2C99.0013 102.2 102.626 98.1414 102.626 93.1344C102.626 88.1274 99.0013 84.0684 94.5306 84.0684C90.0599 84.0684 86.4357 88.1274 86.4357 93.1344C86.4357 98.1414 90.0599 102.2 94.5306 102.2Z" fill="white"/>
<path d="M94.5301 99.3646C97.6022 99.3646 100.093 96.5754 100.093 93.1348C100.093 89.6942 97.6022 86.905 94.5301 86.905C91.458 86.905 88.9675 89.6942 88.9675 93.1348C88.9675 96.5754 91.458 99.3646 94.5301 99.3646Z" fill="white" stroke="#005096" stroke-width="2" stroke-linecap="round" stroke-linejoin="round"/>
<path d="M171.009 47.6091C173.98 47.6091 176.388 44.9119 176.388 41.5847C176.388 38.2575 173.98 35.5602 171.009 35.5602C168.038 35.5602 165.63 38.2575 165.63 41.5847C165.63 44.9119 168.038 47.6091 171.009 47.6091Z" fill="white"/>
<path d="M171.009 38.3767V44.7924" stroke="#005096" stroke-width="2" stroke-linecap="round" stroke-linejoin="round"/>
<path d="M173.873 41.5839H168.144" stroke="#005096" stroke-width="2" stroke-linecap="round" stroke-linejoin="round"/>
<path d="M95.0715 72.4697C98.0424 72.4697 100.451 69.7724 100.451 66.4452C100.451 63.118 98.0424 60.4208 95.0715 60.4208C92.1007 60.4208 89.6924 63.118 89.6924 66.4452C89.6924 69.7724 92.1007 72.4697 95.0715 72.4697Z" fill="white"/>
<path d="M95.0717 63.2468V69.6527" stroke="#005096" stroke-width="2" stroke-linecap="round" stroke-linejoin="round"/>
<path d="M97.9269 66.4454H92.2072" stroke="#005096" stroke-width="2" stroke-linecap="round" stroke-linejoin="round"/>
<path d="M154.575 112.312C157.545 112.312 159.954 109.615 159.954 106.288C159.954 102.961 157.545 100.264 154.575 100.264C151.604 100.264 149.195 102.961 149.195 106.288C149.195 109.615 151.604 112.312 154.575 112.312Z" fill="white"/>
<path d="M154.575 103.081V109.497" stroke="#005096" stroke-width="2" stroke-linecap="round" stroke-linejoin="round"/>
<path d="M157.429 106.288H151.709" stroke="#005096" stroke-width="2" stroke-linecap="round" stroke-linejoin="round"/>
</g>
<defs>
<clipPath id="clip0_7222_114798">
<rect width="248" height="200" fill="white" transform="translate(16)"/>
</clipPath>
</defs>
</svg>
