<svg width="280" height="200" viewBox="0 0 280 200" fill="none" xmlns="http://www.w3.org/2000/svg">
<g clip-path="url(#clip0_7222_114794)">
<path d="M55.864 44.2341V199.024" stroke="#98A2B3" stroke-linecap="round" stroke-linejoin="round"/>
<path d="M52.4734 27.4247L53.8774 28.176" stroke="#98A2B3" stroke-linecap="round" stroke-linejoin="round"/>
<path d="M106.336 1.75598L55.864 29.2487V41.8145L114.26 10.0096" stroke="#98A2B3" stroke-width="2" stroke-linecap="round" stroke-linejoin="round"/>
<path d="M101.031 0.975952L52.4734 27.4247V197.269" stroke="#98A2B3" stroke-width="2" stroke-linecap="round" stroke-linejoin="round"/>
<path d="M126.636 199.025L242.805 136.108V0.975952" stroke="#98A2B3" stroke-width="2" stroke-linecap="round" stroke-linejoin="round"/>
<path d="M74.0119 23.4935L59.847 31.2203V35.0252L74.0119 27.2983V23.4935Z" fill="#D0D5DD"/>
<path d="M76.2583 22.2634V26.0781L105.212 10.283V6.46832L76.2583 22.2634Z" fill="#D0D5DD"/>
<path d="M151.232 18.4586V28.9561L157.119 26.0781L158.388 14.9756L151.232 18.4586Z" fill="white"/>
<path d="M221.807 56.6831C221.807 98.9075 190.212 150.244 151.243 171.356C112.274 192.468 80.6681 175.356 80.6681 133.132C80.6681 90.9075 112.263 39.5709 151.201 18.4587C190.139 -2.65346 221.807 14.4685 221.807 56.6831ZM151.201 28.9563C117.609 47.1709 90.3505 91.4636 90.3505 127.883C90.3505 164.303 117.609 179.073 151.201 160.859C184.794 142.644 212.083 98.3612 212.083 61.9319C212.083 25.5026 184.866 10.7319 151.201 28.9563Z" fill="white" stroke="#98A2B3" stroke-linecap="round" stroke-linejoin="round"/>
<path d="M114.852 69.2233C118.151 63.8618 118.149 58.0652 114.846 56.2763C111.543 54.4875 106.191 57.3837 102.891 62.7452C99.5909 68.1068 99.5934 73.9033 102.896 75.6922C106.199 77.4811 111.552 74.5848 114.852 69.2233Z" fill="white"/>
<path d="M114.791 66.2992C118.091 60.9376 118.088 55.1411 114.785 53.3522C111.483 51.5633 106.13 54.4596 102.83 59.8211C99.5304 65.1827 99.5329 70.9792 102.836 72.7681C106.139 74.5569 111.491 71.6607 114.791 66.2992Z" fill="#D0D5DD" stroke="#98A2B3" stroke-width="2" stroke-linecap="round" stroke-linejoin="round"/>
<path d="M111.826 175.058C115.126 169.696 115.124 163.899 111.821 162.111C108.518 160.322 103.165 163.218 99.8653 168.579C96.5655 173.941 96.568 179.738 99.871 181.526C103.174 183.315 108.526 180.419 111.826 175.058Z" fill="white"/>
<path d="M109.549 173.426C112.848 168.064 112.846 162.267 109.543 160.479C106.24 158.69 100.888 161.586 97.5878 166.947C94.2879 172.309 94.2905 178.106 97.5934 179.894C100.896 181.683 106.249 178.787 109.549 173.426Z" fill="#D0D5DD" stroke="#98A2B3" stroke-width="2" stroke-linecap="round" stroke-linejoin="round"/>
<path d="M191.647 114.732L203.316 108.41L216.171 93.6885V79.1617L207.154 74.2739L207.799 71.2983L219.031 77.0934L219.124 94.391L204.991 110.81L191.793 118.274L191.647 114.732Z" fill="white"/>
<path d="M110.745 119.952L139.21 135.367L166.406 128.401L203.316 108.41L216.17 93.6885V79.1616L187.705 63.747L160.509 70.7129L123.61 90.7031L110.745 105.435V119.952Z" fill="white"/>
<path d="M216.17 79.161L203.316 93.8927L166.406 113.883L139.21 120.849L110.745 105.434" stroke="#005096" stroke-width="2" stroke-linecap="round" stroke-linejoin="round"/>
<path d="M216.17 86.5173L203.316 101.249L166.406 121.239L139.21 128.205L110.745 112.781" stroke="#005096" stroke-linecap="round" stroke-linejoin="round"/>
<path d="M110.745 119.952L139.21 135.367L166.406 128.401L203.316 108.41L216.17 93.6885V79.1616L187.705 63.747L160.509 70.7129L123.61 90.7031L110.745 105.435V119.952Z" stroke="#005096" stroke-width="2" stroke-linecap="round" stroke-linejoin="round"/>
<path d="M139.21 120.849V135.366" stroke="#005096" stroke-width="2" stroke-linecap="round" stroke-linejoin="round"/>
<path d="M166.406 113.883V128.401" stroke="#005096" stroke-width="2" stroke-linecap="round" stroke-linejoin="round"/>
<path d="M203.316 93.8934V108.411" stroke="#005096" stroke-width="2" stroke-linecap="round" stroke-linejoin="round"/>
<path d="M124.982 113.141L201.943 71.4536" stroke="#005096" stroke-linecap="round" stroke-linejoin="round"/>
<path d="M124.982 113.142V128.108" stroke="#005096" stroke-linecap="round" stroke-linejoin="round"/>
<path d="M117.172 98.069L152.813 117.367" stroke="#005096" stroke-linecap="round" stroke-linejoin="round"/>
<path d="M123.61 90.7023L166.406 113.883" stroke="#005096" stroke-linecap="round" stroke-linejoin="round"/>
<path d="M132.834 85.7079L175.631 108.888" stroke="#005096" stroke-linecap="round" stroke-linejoin="round"/>
<path d="M142.06 80.7031L184.866 103.893" stroke="#005096" stroke-linecap="round" stroke-linejoin="round"/>
<path d="M151.285 75.7077L194.092 98.8979" stroke="#005096" stroke-linecap="round" stroke-linejoin="round"/>
<path d="M160.509 70.7123L203.316 93.8928" stroke="#005096" stroke-linecap="round" stroke-linejoin="round"/>
<path d="M174.112 67.2297L209.743 86.5272" stroke="#005096" stroke-linecap="round" stroke-linejoin="round"/>
<path d="M194.216 78.4102C197.042 78.4102 199.333 77.1697 199.333 75.6395C199.333 74.1093 197.042 72.8688 194.216 72.8688C191.39 72.8688 189.099 74.1093 189.099 75.6395C189.099 77.1697 191.39 78.4102 194.216 78.4102Z" fill="white" stroke="#005096" stroke-width="2" stroke-linecap="round" stroke-linejoin="round"/>
<path d="M132.7 111.727C135.526 111.727 137.817 110.486 137.817 108.956C137.817 107.426 135.526 106.185 132.7 106.185C129.874 106.185 127.583 107.426 127.583 108.956C127.583 110.486 129.874 111.727 132.7 111.727Z" fill="white" stroke="#005096" stroke-width="2" stroke-linecap="round" stroke-linejoin="round"/>
<path d="M209.743 86.5267V101.151" stroke="#005096" stroke-linecap="round" stroke-linejoin="round"/>
<path d="M152.814 117.366V131.883" stroke="#005096" stroke-linecap="round" stroke-linejoin="round"/>
<path d="M175.631 108.888V123.542" stroke="#005096" stroke-linecap="round" stroke-linejoin="round"/>
<path d="M184.866 103.893V118.683" stroke="#005096" stroke-linecap="round" stroke-linejoin="round"/>
<path d="M194.092 98.8983V113.815" stroke="#005096" stroke-linecap="round" stroke-linejoin="round"/>
<path d="M110.745 105.435L187.705 63.747" stroke="#005096" stroke-linecap="round" stroke-linejoin="round"/>
<path d="M139.21 120.849L216.17 79.161" stroke="#005096" stroke-linecap="round" stroke-linejoin="round"/>
<path d="M132.699 106.185V109.581" stroke="#005096" stroke-linecap="round" stroke-linejoin="round"/>
<path d="M194.216 72.4295V76.1271" stroke="#005096" stroke-linecap="round" stroke-linejoin="round"/>
<path d="M193.478 64.6738H190.358V94.6543H193.478V64.6738Z" fill="white"/>
<path d="M190.357 64.6731V92.3024C190.357 100.341 178.314 106.868 163.463 106.868C148.612 106.868 136.558 100.341 136.558 92.3024V64.6731C136.558 56.6244 148.601 50.0975 163.463 50.0975C178.325 50.0975 190.357 56.5853 190.357 64.6731Z" fill="white"/>
<path d="M190.357 64.6738C190.357 72.7128 178.314 79.2396 163.463 79.2396C148.612 79.2396 136.558 72.7128 136.558 64.6738" stroke="#005096" stroke-width="2" stroke-linecap="round" stroke-linejoin="round"/>
<path d="M190.357 64.6731V92.3024C190.357 100.341 178.314 106.868 163.463 106.868C148.612 106.868 136.558 100.341 136.558 92.3024V64.6731C136.558 56.6244 148.601 50.0975 163.463 50.0975C178.325 50.0975 190.357 56.5853 190.357 64.6731Z" stroke="#005096" stroke-width="2" stroke-linecap="round" stroke-linejoin="round"/>
<path d="M163.462 72.4292C171.372 72.4292 177.783 68.9567 177.783 64.6731C177.783 60.3896 171.372 56.9171 163.462 56.9171C155.553 56.9171 149.142 60.3896 149.142 64.6731C149.142 68.9567 155.553 72.4292 163.462 72.4292Z" stroke="#005096" stroke-width="2" stroke-linecap="round" stroke-linejoin="round"/>
<path d="M163.463 56.9077V69.6589" stroke="#005096" stroke-linecap="round" stroke-linejoin="round"/>
<path d="M163.463 79.2396V106.869" stroke="#005096" stroke-linecap="round" stroke-linejoin="round"/>
<path d="M177.784 64.6738H190.358" stroke="#005096" stroke-linecap="round" stroke-linejoin="round"/>
<path d="M149.132 64.6738H136.558" stroke="#005096" stroke-linecap="round" stroke-linejoin="round"/>
<path d="M163.463 56.9073V50.0975" stroke="#005096" stroke-linecap="round" stroke-linejoin="round"/>
<path d="M163.463 72.4296V79.2394" stroke="#005096" stroke-linecap="round" stroke-linejoin="round"/>
<path d="M173.592 70.1567L182.484 74.9762" stroke="#005096" stroke-linecap="round" stroke-linejoin="round"/>
<path d="M144.441 54.3707L153.333 59.1804" stroke="#005096" stroke-linecap="round" stroke-linejoin="round"/>
<path d="M173.592 59.1804L182.484 54.3707" stroke="#005096" stroke-linecap="round" stroke-linejoin="round"/>
<path d="M144.441 74.9762L153.333 70.1567" stroke="#005096" stroke-linecap="round" stroke-linejoin="round"/>
<path d="M153.333 59.1805V67.2585" stroke="#005096" stroke-linecap="round" stroke-linejoin="round"/>
<path d="M173.592 59.1805V67.2585" stroke="#005096" stroke-linecap="round" stroke-linejoin="round"/>
<path d="M182.485 74.976V102.605" stroke="#005096" stroke-linecap="round" stroke-linejoin="round"/>
<path d="M144.441 74.976V102.605" stroke="#005096" stroke-linecap="round" stroke-linejoin="round"/>
<path d="M190.357 64.6738C190.357 72.7128 178.314 79.2396 163.463 79.2396C148.612 79.2396 136.558 72.7128 136.558 64.6738" stroke="#005096" stroke-linecap="round" stroke-linejoin="round"/>
<path d="M190.357 73.8731C190.357 81.9121 178.314 88.439 163.463 88.439C148.612 88.439 136.558 81.9512 136.558 73.8731" stroke="#005096" stroke-linecap="round" stroke-linejoin="round"/>
<path d="M190.358 83.0735C190.358 91.1223 178.314 97.6394 163.463 97.6394C148.612 97.6394 136.558 91.1223 136.558 83.0735" stroke="#005096" stroke-linecap="round" stroke-linejoin="round"/>
<path d="M190.357 92.2737C190.357 100.323 178.314 106.84 163.463 106.84C148.612 106.84 136.558 100.323 136.558 92.2737" stroke="#005096" stroke-linecap="round" stroke-linejoin="round"/>
<path d="M152.855 67.0837C156.093 65.4214 159.724 64.5461 163.415 64.5375C167.106 64.529 170.741 65.3876 173.988 67.0349" stroke="#005096" stroke-linecap="round" stroke-linejoin="round"/>
<path d="M57.8506 178.693L50.0818 182.907L50.3626 185.98L57.6634 182.293L57.8506 178.693Z" fill="white"/>
<path d="M20.4308 199.024L17.0404 197.2V72.1562L68.9575 44.0391L72.348 45.8635V170.907L20.4308 199.024Z" fill="white"/>
<path d="M72.348 61.8245V170.907L20.4308 199.024L17.0404 197.2V72.1562L68.9575 44.0391L69.4047 44.283" stroke="#98A2B3" stroke-width="2" stroke-linecap="round" stroke-linejoin="round"/>
<path d="M17.0404 72.1569L18.3092 72.8398" stroke="#98A2B3" stroke-linecap="round" stroke-linejoin="round"/>
<path d="M57.9643 109.073L54.3867 107.122L51.9739 111.034L57.9643 114.273L67.0956 99.4539L64.6932 98.1466L57.9643 109.073Z" fill="#98A2B3"/>
<path d="M72.3482 45.8642L20.431 73.9813V86.5471L72.3482 58.4301V45.8642Z" stroke="#98A2B3" stroke-width="2" stroke-linecap="round" stroke-linejoin="round"/>
<path d="M46.3894 75.2004V182.322" stroke="#98A2B3" stroke-linecap="round" stroke-linejoin="round"/>
<path d="M69.7689 87.9514L20.431 114.673" stroke="#98A2B3" stroke-linecap="round" stroke-linejoin="round"/>
<path d="M70.0186 115.932L20.431 142.79" stroke="#98A2B3" stroke-linecap="round" stroke-linejoin="round"/>
<path d="M69.8521 144.146L20.431 170.907" stroke="#98A2B3" stroke-linecap="round" stroke-linejoin="round"/>
<path d="M20.431 199.025V89.2587" stroke="#98A2B3" stroke-linecap="round" stroke-linejoin="round"/>
<path d="M57.7878 58.0398L24.2788 76.1764V79.9813L57.7878 61.8544V58.0398Z" fill="#D0D5DD"/>
<g opacity="0.5">
<path opacity="0.5" d="M53.908 164.224C54.1015 164.2 54.2984 164.222 54.4803 164.289C54.6621 164.355 54.8231 164.464 54.948 164.605C55.2232 164.971 55.3555 165.416 55.3224 165.863C55.3183 166.434 55.191 166.998 54.948 167.522C54.6997 168.083 54.3476 168.598 53.908 169.044C53.4394 169.519 52.8957 169.924 52.296 170.244L50.8815 171.005V173.102L49.2695 173.971V166.4L52.296 164.761C52.7795 164.463 53.3325 164.279 53.908 164.224ZM53.3152 167.922C53.5605 167.575 53.6908 167.168 53.6896 166.751C53.6896 166.322 53.5648 166.068 53.3152 165.971C53.1203 165.94 52.9209 165.948 52.7295 165.993C52.538 166.039 52.3585 166.121 52.2024 166.234L50.8815 166.946V169.58L52.2024 168.868C52.6482 168.64 53.0297 168.316 53.3152 167.922Z" fill="#98A2B3"/>
<path opacity="0.5" d="M63.1225 158.898L60.096 168.107L58.4944 168.976L55.52 163.034L57.2672 162.059L59.3472 166.312L61.5105 159.737L63.1225 158.898Z" fill="#98A2B3"/>
<path opacity="0.5" d="M67.6783 162.38L64.4335 164.137L63.8199 166.088L62.1559 166.985L65.2759 157.717L66.8775 156.859L69.9975 162.712L68.3023 163.639L67.6783 162.38ZM67.1687 161.327L66.0663 159.024L64.9535 162.527L67.1687 161.327Z" fill="#98A2B3"/>
<path opacity="0.5" d="M27.6377 178.448C27.8309 178.429 28.0264 178.453 28.2074 178.519C28.3885 178.585 28.5498 178.692 28.6777 178.829C28.953 179.196 29.0852 179.64 29.0521 180.087C29.0492 180.658 28.9218 181.223 28.6777 181.746C28.4294 182.307 28.0773 182.822 27.6377 183.268C27.1667 183.743 26.6236 184.151 26.0257 184.478L24.6113 185.239V187.317L22.9993 188.195V180.614L26.0257 178.975C26.5124 178.685 27.0642 178.505 27.6377 178.448ZM27.0449 182.156C27.2962 181.807 27.4335 181.396 27.4401 180.975C27.4401 180.556 27.3153 180.292 27.0657 180.204C26.8709 180.174 26.6715 180.182 26.48 180.227C26.2885 180.273 26.1091 180.355 25.9529 180.468L24.6321 181.18V183.804L25.9529 183.092C26.3883 182.862 26.7618 182.542 27.0449 182.156Z" fill="#98A2B3"/>
<path opacity="0.5" d="M29.8118 176.936L31.4238 176.058V182.204L34.939 180.302V181.736L29.8118 184.507V176.936Z" fill="#98A2B3"/>
<path opacity="0.5" d="M41.1164 176.771L37.8404 178.537L37.2268 180.488L35.5627 181.385L38.6828 172.117L40.2844 171.259L43.4044 177.112L41.7092 178.039L41.1164 176.771ZM40.6068 175.717L39.494 173.415L38.3812 176.917L40.6068 175.717Z" fill="#98A2B3"/>
<path opacity="0.5" d="M53.7731 141.268L50.5178 143.024L49.9042 144.975L48.2402 145.873L51.3603 136.605L52.9619 135.736L56.0819 141.59L54.3867 142.566L53.7731 141.268ZM53.2635 140.205L52.1507 137.912L51.0379 141.463L53.2635 140.205Z" fill="#98A2B3"/>
<path opacity="0.5" d="M62.8941 134.692C63.0152 134.826 63.1069 134.981 63.164 135.149C63.2211 135.316 63.2425 135.493 63.2269 135.668C63.2262 136.373 62.9776 137.059 62.5196 137.619C61.9559 138.301 61.2477 138.865 60.4396 139.278L56.8308 141.229V133.658L60.242 131.814C60.8056 131.416 61.5046 131.226 62.2076 131.278C62.6652 131.385 62.8941 131.736 62.8941 132.341C62.8905 132.727 62.8057 133.108 62.6444 133.463C62.4844 133.85 62.2519 134.207 61.958 134.517C62.1177 134.474 62.2859 134.467 62.4488 134.498C62.6116 134.528 62.7643 134.595 62.8941 134.692ZM58.422 134.107V135.892L60.034 135.024C60.3869 134.846 60.6953 134.6 60.9388 134.302C61.1389 134.062 61.2486 133.767 61.2508 133.463C61.2508 133.17 61.1468 133.004 60.9388 132.965C60.6145 132.967 60.2986 133.063 60.034 133.239L58.422 134.107ZM61.282 137.278C61.4877 137.021 61.6007 136.71 61.6044 136.39C61.6044 135.765 61.178 135.687 60.3148 136.146L58.422 137.121V138.995L60.3148 137.97C60.6817 137.8 61.0101 137.565 61.282 137.278Z" fill="#98A2B3"/>
<path opacity="0.5" d="M65.1504 136.586C64.7447 136.685 64.3185 136.685 63.9128 136.586L64.464 134.966C64.8067 135.036 65.1614 135.036 65.504 134.966C65.9392 134.878 66.3568 134.727 66.7417 134.517C67.141 134.326 67.4948 134.06 67.7817 133.737C67.9862 133.525 68.1041 133.252 68.1145 132.966C68.1257 132.897 68.1124 132.826 68.0768 132.764C68.0411 132.703 67.9849 132.654 67.9169 132.625C67.754 132.579 67.5805 132.579 67.4177 132.625C67.1397 132.678 66.8654 132.746 66.5961 132.829C66.1679 132.958 65.7298 133.056 65.2856 133.122C65.1343 133.15 64.9785 133.147 64.8281 133.116C64.6777 133.084 64.536 133.023 64.412 132.937C64.2789 132.809 64.1773 132.656 64.1144 132.487C64.0515 132.318 64.0289 132.139 64.048 131.961C64.0584 131.486 64.1716 131.018 64.3808 130.586C64.6277 130.076 64.9614 129.608 65.3689 129.2C65.833 128.734 66.3695 128.336 66.9601 128.02C67.3685 127.792 67.8051 127.612 68.2601 127.483C68.6214 127.37 69.005 127.333 69.3833 127.376L68.8841 128.976C68.2042 128.937 67.5282 129.097 66.9497 129.434C66.549 129.624 66.1949 129.89 65.9097 130.215C65.7124 130.442 65.5992 130.722 65.5873 131.015C65.5873 131.281 65.7121 131.408 65.9617 131.395C66.3525 131.355 66.7367 131.269 67.1057 131.142C67.5352 131.017 67.9729 130.92 68.4161 130.849C68.5668 130.822 68.7218 130.823 68.8719 130.853C69.022 130.884 69.1641 130.942 69.2897 131.025C69.4246 131.151 69.5274 131.304 69.5905 131.473C69.6535 131.642 69.6751 131.822 69.6537 132C69.6422 132.472 69.529 132.937 69.3209 133.366C69.0596 133.882 68.7081 134.354 68.2809 134.761C67.8064 135.232 67.2596 135.633 66.6585 135.951C66.1888 136.226 65.6815 136.439 65.1504 136.586Z" fill="#98A2B3"/>
<path opacity="0.5" d="M27.4405 156.79C27.1756 156.787 26.9153 156.725 26.6805 156.609C26.4457 156.494 26.2429 156.329 26.0885 156.127C25.7277 155.606 25.5529 154.991 25.5893 154.371C25.5964 153.587 25.766 152.811 26.0885 152.088C26.4146 151.315 26.8711 150.597 27.4405 149.961C27.9855 149.337 28.6439 148.809 29.3854 148.4C29.8832 148.106 30.4445 147.92 31.0286 147.854C31.4714 147.81 31.9151 147.928 32.2662 148.185L31.2262 149.785C30.9624 149.623 30.651 149.542 30.3356 149.554C30.0203 149.567 29.7171 149.671 29.4686 149.854C29.019 150.108 28.624 150.439 28.3037 150.829C27.9693 151.217 27.7025 151.651 27.5133 152.117C27.3301 152.566 27.235 153.042 27.2325 153.522C27.2078 153.908 27.3055 154.291 27.5133 154.625C27.6016 154.748 27.7187 154.851 27.8556 154.925C27.9926 154.999 28.1459 155.043 28.3037 155.054C28.7164 155.06 29.1219 154.952 29.4686 154.742C30.2285 154.291 30.8376 153.648 31.2262 152.888L32.2662 153.366C31.9375 153.976 31.5211 154.54 31.0286 155.044C30.5435 155.529 29.9866 155.947 29.375 156.283C28.7925 156.617 28.1229 156.792 27.4405 156.79Z" fill="#98A2B3"/>
<path opacity="0.5" d="M34.0445 152.8C33.4933 152.508 33.2125 151.825 33.2125 150.693V146.449L34.8349 145.571V149.747C34.8349 151.103 35.3549 151.503 36.3845 150.937C36.8805 150.677 37.2852 150.287 37.5494 149.815C37.8345 149.27 37.9703 148.666 37.9446 148.059V143.883L39.5462 143.015V147.259C39.5672 148.305 39.2889 149.338 38.7402 150.249C38.1914 151.16 37.3924 151.916 36.4261 152.439C35.3861 152.976 34.6061 153.103 34.0445 152.8Z" fill="#98A2B3"/>
<path opacity="0.5" d="M30.3 120.8L28.064 122.019V120.585L34.1584 117.287V118.712L31.9224 119.922V126.078L30.3 126.946V120.8Z" fill="#98A2B3"/>
<path opacity="0.5" d="M35.0219 116.81L36.6443 115.941V123.512L35.0219 124.39V116.81Z" fill="#98A2B3"/>
<path opacity="0.5" d="M55.0727 78.7125V80.7223L58.3071 78.9662V80.371L55.0727 82.1271V84.8784L53.4503 85.7564V78.1857L58.7439 75.3271V76.732L55.0727 78.7125Z" fill="#98A2B3"/>
<path opacity="0.5" d="M65.2544 77.961V79.3756L59.8359 82.3024V74.7317L65.1192 71.8634V73.2683L61.4479 75.2683V76.9073L64.6928 75.1219V76.4878L61.4479 78.2439V80L65.2544 77.961Z" fill="#98A2B3"/>
<path opacity="0.5" d="M31.3401 96.117L28.0952 97.8731L27.4712 99.8244L25.8176 100.722L28.9376 91.4536L30.5601 90.6049L33.6801 96.4585L31.9745 97.3756L31.3401 96.117ZM30.8305 95.0634L29.7177 92.761L28.6152 96.2634L30.8305 95.0634Z" fill="#98A2B3"/>
<path opacity="0.5" d="M34.3871 88.517L35.9991 87.639V93.7853L39.5143 91.8829V93.317L34.3871 96.0878V88.517Z" fill="#98A2B3"/>
</g>
<path d="M240.746 111.874L245.613 108.976L245.426 112.488L241.027 114.859L240.746 111.874Z" fill="white"/>
<path d="M237.002 113.825L233.612 111.961V15.0345L259.57 0.975952L262.961 2.83937V99.7564L237.002 113.825Z" fill="white"/>
<path d="M233.612 15.0344L235.099 15.8539" stroke="#98A2B3" stroke-linecap="round" stroke-linejoin="round"/>
<path d="M237.002 31.571V113.825" stroke="#98A2B3" stroke-linecap="round" stroke-linejoin="round"/>
<path d="M237.002 57.5804L260.59 44.8097" stroke="#98A2B3" stroke-linecap="round" stroke-linejoin="round"/>
<path d="M237.002 85.698L260.704 72.8688" stroke="#98A2B3" stroke-linecap="round" stroke-linejoin="round"/>
<path d="M262.961 18.4003V99.7564L237.002 113.825L233.612 111.961V15.0345L259.57 0.975952L260.267 1.35644" stroke="#98A2B3" stroke-width="2" stroke-linecap="round" stroke-linejoin="round"/>
<path d="M262.961 2.83893L237.002 16.8975V29.4633L262.961 15.4048V2.83893Z" stroke="#98A2B3" stroke-width="2" stroke-linecap="round" stroke-linejoin="round"/>
<path d="M257.094 10.3902L240.933 19.1609V22.9658L257.094 14.2048V10.3902Z" fill="#D0D5DD"/>
<path d="M248.234 37.8345L244.646 35.893L242.243 39.7955L248.234 43.0443L257.355 28.2247L254.952 26.9174L248.234 37.8345Z" fill="#98A2B3"/>
<g opacity="0.4">
<path opacity="0.4" d="M240.662 99.9216V106.497" stroke="#98A2B3" stroke-linecap="round" stroke-linejoin="round"/>
<path opacity="0.4" d="M248.899 92.0486L243.896 94.7608V90.7706L248.899 88.0584V92.0486Z" stroke="#98A2B3" stroke-linecap="round" stroke-linejoin="round"/>
<path opacity="0.4" d="M240.662 99.9216L243.897 94.7607L248.899 92.0485L252.133 93.707" stroke="#98A2B3" stroke-linecap="round" stroke-linejoin="round"/>
<path opacity="0.4" d="M252.955 93.2582L239.841 100.361" stroke="#98A2B3" stroke-linecap="round" stroke-linejoin="round"/>
<path opacity="0.4" d="M252.134 93.7069V100.283" stroke="#98A2B3" stroke-linecap="round" stroke-linejoin="round"/>
<path opacity="0.4" d="M259.248 91.1708L248.9 90.0586L259.248 77.7269" stroke="#98A2B3" stroke-linecap="round" stroke-linejoin="round"/>
</g>
<g opacity="0.4">
<path opacity="0.4" d="M254.879 60.166C257.441 60.166 259.518 58.2179 259.518 55.8148C259.518 53.4117 257.441 51.4636 254.879 51.4636C252.317 51.4636 250.241 53.4117 250.241 55.8148C250.241 58.2179 252.317 60.166 254.879 60.166Z" stroke="#98A2B3" stroke-linecap="round" stroke-linejoin="round"/>
<path opacity="0.4" d="M243.554 75.1711C246.116 75.1711 248.192 73.223 248.192 70.8198C248.192 68.4167 246.116 66.4686 243.554 66.4686C240.992 66.4686 238.915 68.4167 238.915 70.8198C238.915 73.223 240.992 75.1711 243.554 75.1711Z" stroke="#98A2B3" stroke-linecap="round" stroke-linejoin="round"/>
<path opacity="0.4" d="M256.107 66.2538V70.5074" stroke="#98A2B3" stroke-linecap="round" stroke-linejoin="round"/>
<path opacity="0.4" d="M258.072 67.3168L254.141 69.4436" stroke="#98A2B3" stroke-linecap="round" stroke-linejoin="round"/>
</g>
<path d="M138.939 75.6397L133.24 73.4055L133.666 76.5665L139.033 77.7372L138.939 75.6397Z" fill="white"/>
<path d="M114.853 66.1761L140.406 76.2151" stroke="#98A2B3" stroke-linecap="round" stroke-linejoin="round"/>
<path d="M128.799 127.434L126.542 131.298L129.298 132.644L130.671 128.4L128.799 127.434Z" fill="white"/>
<path d="M109.498 160.459L129.174 126.791" stroke="#98A2B3" stroke-linecap="round" stroke-linejoin="round"/>
</g>
<defs>
<clipPath id="clip0_7222_114794">
<rect width="248" height="200" fill="white" transform="translate(16)"/>
</clipPath>
</defs>
</svg>
