<svg width="280" height="200" viewBox="0 0 280 200" fill="none" xmlns="http://www.w3.org/2000/svg">
<g clip-path="url(#clip0_7222_114796)">
<path d="M188.3 125.234L136.161 157.661L130.747 154.29L182.877 121.873L188.3 125.234Z" fill="white"/>
<path d="M199.775 132.381L147.645 164.798L142.232 161.437L194.362 129.01L199.775 132.381Z" fill="white"/>
<path d="M211.26 139.52L159.13 171.947L153.707 168.575L205.846 136.148L211.26 139.52Z" fill="white"/>
<path d="M184.569 127.553L136.161 157.661L130.747 154.29L179.156 124.181L184.569 127.553Z" fill="#005096"/>
<path d="M173.715 148.591L147.645 164.799L142.232 161.438L168.293 145.219L173.715 148.591Z" fill="#005096"/>
<path d="M198.14 147.679L159.13 171.946L153.707 168.575L192.727 144.308L198.14 147.679Z" fill="#005096"/>
<path d="M188.3 125.234L136.161 157.661L130.747 154.29L182.877 121.873L188.3 125.234Z" stroke="#005096" stroke-width="2" stroke-linecap="round" stroke-linejoin="round"/>
<path d="M199.775 132.381L147.645 164.798L142.232 161.437L194.362 129.01L199.775 132.381Z" stroke="#005096" stroke-width="2" stroke-linecap="round" stroke-linejoin="round"/>
<path d="M211.26 139.52L159.13 171.947L153.707 168.575L205.846 136.148L211.26 139.52Z" stroke="#005096" stroke-width="2" stroke-linecap="round" stroke-linejoin="round"/>
<path d="M202.293 167.198H192.773V171.157H208.665V156.113H202.293V167.198Z" fill="#005096"/>
<path d="M32.5775 108.034L107.159 61.6556L256.218 153.612L181.637 200L32.5775 108.034ZM36.9099 108.034L181.637 197.287L251.886 153.612L107.159 64.3588L36.9099 108.034Z" fill="#005096"/>
<path d="M181.891 63.1841L185.856 65.6544L189.822 63.1841L211.466 77.1958L207.321 79.1598L207.359 84.8495L181.891 67.8817V63.1841Z" fill="white"/>
<path d="M214.558 47.5829L210.451 50.1341C210.883 49.881 227.452 60.7441 227.452 60.7441L223.336 63.3055L228.533 66.5452L236.728 61.4832L214.558 47.5829Z" fill="white"/>
<path d="M214.558 12.3213L210.451 9.77008L206.353 12.3213V47.6035L210.451 50.1548L214.558 47.6035V12.3213Z" fill="white"/>
<path d="M210.451 47.5833V14.8726" stroke="#98A2B3" stroke-linecap="round" stroke-linejoin="round"/>
<path d="M206.353 12.3209L210.451 14.8721L214.558 12.3209" stroke="#98A2B3" stroke-linecap="round" stroke-linejoin="round"/>
<path d="M214.558 12.3213L210.451 9.77008L206.353 12.3213V47.6035L210.451 50.1548L214.558 47.6035V12.3213Z" stroke="#98A2B3" stroke-width="2" stroke-linecap="round" stroke-linejoin="round"/>
<path d="M206.335 73.4902L185.895 60.7745L206.344 47.5829L227.49 60.734L206.335 73.4902Z" stroke="#98A2B3" stroke-width="2" stroke-linecap="round" stroke-linejoin="round"/>
<path d="M207.322 79.1597L207.359 84.8494L211.466 87.4108L240.872 69.0863V63.9838L236.765 61.4224L207.322 79.1597Z" fill="white"/>
<path d="M240.872 63.984L211.466 82.2984" stroke="#98A2B3" stroke-linecap="round" stroke-linejoin="round"/>
<path d="M211.466 87.411V82.2984L209.417 81.0228" stroke="#98A2B3" stroke-linecap="round" stroke-linejoin="round"/>
<path d="M207.322 79.1597L207.359 84.8494L211.466 87.4108L240.872 69.0863V63.9838L236.765 61.4224L207.322 79.1597Z" stroke="#98A2B3" stroke-width="2" stroke-linecap="round" stroke-linejoin="round"/>
<path d="M214.558 47.6027L236.775 61.4118" stroke="#98A2B3" stroke-width="2" stroke-linecap="round" stroke-linejoin="round"/>
<path d="M210.451 50.1544L232.668 63.9838" stroke="#98A2B3" stroke-linecap="round" stroke-linejoin="round"/>
<path d="M223.373 63.2949L228.439 66.4434" stroke="#98A2B3" stroke-width="2" stroke-linecap="round" stroke-linejoin="round"/>
<path d="M207.359 84.8495L181.891 67.8817V63.1841" stroke="#98A2B3" stroke-width="2" stroke-linecap="round" stroke-linejoin="round"/>
<path d="M207.322 79.1593L185.857 65.6539" stroke="#98A2B3" stroke-linecap="round" stroke-linejoin="round"/>
<path d="M206.335 73.4901L211.466 76.6893" stroke="#98A2B3" stroke-width="2" stroke-linecap="round" stroke-linejoin="round"/>
<path d="M189.268 28.1144L185.161 25.5631L181.054 28.1144L181.891 63.184L185.857 65.6542L189.823 63.184L189.268 28.1144Z" fill="white"/>
<path d="M185.857 63.184L185.161 30.6656" stroke="#98A2B3" stroke-linecap="round" stroke-linejoin="round"/>
<path d="M181.054 28.1139L185.161 30.6651L189.268 28.1139" stroke="#98A2B3" stroke-linecap="round" stroke-linejoin="round"/>
<path d="M189.268 28.1144L185.161 25.5631L181.054 28.1144L181.891 63.184L185.857 65.6542L189.823 63.184L189.268 28.1144Z" stroke="#98A2B3" stroke-width="2" stroke-linecap="round" stroke-linejoin="round"/>
<path d="M181.017 22.9819V28.0945L185.124 30.6458L214.53 12.3213V7.21879L210.423 4.66754L181.017 22.9819Z" fill="white"/>
<path d="M214.53 7.21832L185.124 25.5428" stroke="#98A2B3" stroke-linecap="round" stroke-linejoin="round"/>
<path d="M185.124 30.6453V25.5428L183.075 24.2571" stroke="#98A2B3" stroke-linecap="round" stroke-linejoin="round"/>
<path d="M181.017 22.9819V28.0945L185.124 30.6458L214.53 12.3213V7.21879L210.423 4.66754L181.017 22.9819Z" stroke="#98A2B3" stroke-width="2" stroke-linecap="round" stroke-linejoin="round"/>
<path d="M181.017 39.6557V44.7683L185.124 47.3196L222.79 23.7711V18.6686L218.683 16.1174L181.017 39.6557Z" fill="white"/>
<path d="M222.79 18.6691L185.124 42.2176" stroke="#98A2B3" stroke-linecap="round" stroke-linejoin="round"/>
<path d="M185.124 47.3201V42.2176L183.075 40.942" stroke="#98A2B3" stroke-linecap="round" stroke-linejoin="round"/>
<path d="M181.017 39.6557V44.7683L185.124 47.3196L222.79 23.7711V18.6686L218.683 16.1174L181.017 39.6557Z" stroke="#98A2B3" stroke-width="2" stroke-linecap="round" stroke-linejoin="round"/>
<path d="M210.141 37.1146L216.419 33.2169V25.4012L212.66 23.0726L206.382 26.9704V34.776L210.141 37.1146Z" fill="white"/>
<path d="M210.141 37.1145V29.3089L216.419 25.401" stroke="#98A2B3" stroke-linecap="round" stroke-linejoin="round"/>
<path d="M210.141 37.1146L216.419 33.2169V25.4012L212.66 23.0726L206.382 26.9704V34.776L210.141 37.1146Z" stroke="#98A2B3" stroke-width="2" stroke-linecap="round" stroke-linejoin="round"/>
<path d="M208.43 28.2464L210.141 29.3094" stroke="#98A2B3" stroke-linecap="round" stroke-linejoin="round"/>
<path d="M196.871 96.1272L208.233 89.1011V84.363L201.241 74.0669L179.166 60.3387L167.804 67.3648V78.0457L196.871 96.1272Z" fill="white"/>
<path d="M170.031 68.7524L189.88 81.0936L196.872 91.3897V96.1277" stroke="#98A2B3" stroke-linecap="round" stroke-linejoin="round"/>
<path d="M196.871 96.1272L208.233 89.1011V84.363L201.241 74.0669L179.166 60.3387L167.804 67.3648V78.0457L196.871 96.1272Z" stroke="#98A2B3" stroke-width="2" stroke-linecap="round" stroke-linejoin="round"/>
<path d="M189.879 81.0939L199.483 75.1511" stroke="#98A2B3" stroke-linecap="round" stroke-linejoin="round"/>
<path d="M196.871 91.3894L206.109 85.6794" stroke="#98A2B3" stroke-linecap="round" stroke-linejoin="round"/>
<path d="M202.773 81.5385L196.383 85.497L192.36 79.5542L198.76 75.6058L202.773 81.5385Z" stroke="#98A2B3" stroke-width="2" stroke-linecap="round" stroke-linejoin="round"/>
<path d="M206.664 82.6322C206.916 82.3549 207.075 81.9942 207.114 81.6082C207.153 81.2221 207.07 80.8331 206.88 80.5036C206.689 80.1742 206.4 79.9234 206.061 79.7917C205.722 79.6599 205.352 79.6549 205.01 79.7773L202.858 81.2149C202.6 81.4911 202.437 81.8532 202.395 82.2421C202.353 82.6311 202.434 83.0239 202.626 83.3564C202.818 83.6889 203.109 83.9415 203.452 84.0729C203.794 84.2043 204.168 84.2068 204.512 84.08L206.664 82.6322Z" fill="white"/>
<path d="M206.664 82.6322C206.916 82.3549 207.075 81.9942 207.114 81.6082C207.153 81.2221 207.07 80.8331 206.88 80.5036C206.689 80.1742 206.4 79.9234 206.061 79.7917C205.722 79.6599 205.352 79.6549 205.01 79.7773L202.858 81.2149C202.6 81.4911 202.437 81.8532 202.395 82.2421C202.353 82.6311 202.434 83.0239 202.626 83.3564C202.818 83.6889 203.109 83.9415 203.452 84.0729C203.794 84.2043 204.168 84.2068 204.512 84.08L206.664 82.6322Z" stroke="#98A2B3" stroke-width="2" stroke-linecap="round" stroke-linejoin="round"/>
<path d="M206.664 82.6322C206.387 82.7799 206.072 82.8193 205.772 82.7435C205.472 82.6678 205.205 82.4816 205.019 82.2171" stroke="#98A2B3" stroke-linecap="round" stroke-linejoin="round"/>
<path d="M169.43 29.0357L124.376 1.01239H118.042L72.9888 29.0357L67.1715 34.7659V118.269L117.666 149.653H124.752L175.247 118.269V34.7659L169.43 29.0357Z" fill="white"/>
<path d="M156.507 30.635L121.209 52.5839L85.9103 30.635" stroke="#98A2B3" stroke-width="2" stroke-linecap="round" stroke-linejoin="round"/>
<path d="M87.8752 29.4106L121.209 8.67657L154.609 29.4511" stroke="#98A2B3" stroke-linecap="round" stroke-linejoin="round"/>
<path d="M88.5801 32.2952L121.209 11.9966L151.799 31.0196" stroke="#98A2B3" stroke-linecap="round" stroke-linejoin="round"/>
<path d="M97.7618 118.603L121.256 133.212L156.555 111.263L121.256 89.3039L93.2414 106.697" stroke="#98A2B3" stroke-width="2" stroke-linecap="round" stroke-linejoin="round"/>
<path d="M146.847 100.086H144.027V108.044H146.847V100.086Z" fill="white"/>
<path d="M85.8259 103.478L117.666 83.6754" stroke="#98A2B3" stroke-linecap="round" stroke-linejoin="round"/>
<path d="M137.166 91.389L166.13 109.41" stroke="#98A2B3" stroke-linecap="round" stroke-linejoin="round"/>
<path d="M175.247 38.1984L160.633 47.31" stroke="#98A2B3" stroke-linecap="round" stroke-linejoin="round"/>
<path d="M139.008 60.7438L124.752 69.6124H117.666L69.1163 39.4125" stroke="#98A2B3" stroke-linecap="round" stroke-linejoin="round"/>
<path d="M169.429 29.157V32.1031L124.376 60.1264H118.042L72.9883 32.1031V31.7184" stroke="#98A2B3" stroke-linecap="round" stroke-linejoin="round"/>
<path d="M169.43 29.0357L124.376 1.01239H118.042L72.9888 29.0357L67.1715 34.7659V118.269L117.666 149.653H124.752L175.247 118.269V34.7659L169.43 29.0357Z" stroke="#98A2B3" stroke-width="2" stroke-linecap="round" stroke-linejoin="round"/>
<path d="M131.856 83.3715L134.14 78.6739L165.858 58.8815L170.876 62.9311V104.986L165.858 115.313L134.14 135.105L130.513 132.159" stroke="#98A2B3" stroke-width="2" stroke-linecap="round" stroke-linejoin="round"/>
<path d="M73.6463 102.587V114.614" stroke="#98A2B3" stroke-width="2" stroke-linecap="round" stroke-linejoin="round"/>
<path d="M77.2549 104.834V116.861" stroke="#98A2B3" stroke-width="2" stroke-linecap="round" stroke-linejoin="round"/>
<path d="M80.8737 107.081V119.109" stroke="#98A2B3" stroke-width="2" stroke-linecap="round" stroke-linejoin="round"/>
<path d="M84.4917 109.33L84.4823 121.357" stroke="#98A2B3" stroke-width="2" stroke-linecap="round" stroke-linejoin="round"/>
<path d="M88.1001 111.577V123.604" stroke="#98A2B3" stroke-width="2" stroke-linecap="round" stroke-linejoin="round"/>
<path d="M91.7189 113.824V125.851" stroke="#98A2B3" stroke-width="2" stroke-linecap="round" stroke-linejoin="round"/>
<path d="M141.189 59.3875V68.8635L158.819 57.8992V48.4232L141.189 59.3875Z" stroke="#98A2B3" stroke-width="2" stroke-linecap="round" stroke-linejoin="round"/>
<path d="M121.209 10.4888V8.67657" stroke="#98A2B3" stroke-linecap="round" stroke-linejoin="round"/>
<path d="M124.752 71.405V83.1083" stroke="#98A2B3" stroke-linecap="round" stroke-linejoin="round"/>
<path d="M124.752 136.199V149.674" stroke="#98A2B3" stroke-linecap="round" stroke-linejoin="round"/>
<path d="M117.666 71.405V84.5662" stroke="#98A2B3" stroke-linecap="round" stroke-linejoin="round"/>
<path d="M117.666 138.386V149.674" stroke="#98A2B3" stroke-linecap="round" stroke-linejoin="round"/>
<path d="M103.429 118.117L114.386 124.94L124.865 121.853L139.075 113.024L144.018 106.505V100.086L133.06 93.2725L122.591 96.3502L108.381 105.188L103.429 111.698V118.117Z" fill="white"/>
<path d="M144.018 100.086L139.074 106.606L124.865 115.434L114.386 118.522L105.317 112.873" stroke="#005096" stroke-linecap="round" stroke-linejoin="round"/>
<path d="M103.429 118.117L114.386 124.94L124.865 121.853L139.075 113.024L144.018 106.505V100.086L133.06 93.2725L122.591 96.3502L108.381 105.188L103.429 111.698V118.117Z" stroke="#005096" stroke-width="2" stroke-linecap="round" stroke-linejoin="round"/>
<path d="M114.387 120.294V124.941" stroke="#005096" stroke-linecap="round" stroke-linejoin="round"/>
<path d="M124.865 117.216V121.853" stroke="#005096" stroke-linecap="round" stroke-linejoin="round"/>
<path d="M139.074 108.52V113.025" stroke="#005096" stroke-linecap="round" stroke-linejoin="round"/>
<path d="M111.275 112.093C111.477 112.052 111.681 112.031 111.886 112.033C112.104 112.03 112.322 112.054 112.535 112.104" stroke="#005096" stroke-linecap="round" stroke-linejoin="round"/>
<path d="M113.86 113.258C113.86 113.936 112.976 114.483 111.886 114.483C110.796 114.483 109.912 113.936 109.912 113.258" stroke="#005096" stroke-width="2" stroke-linecap="round" stroke-linejoin="round"/>
<path d="M135.043 97.3427C135.218 97.3323 135.394 97.3323 135.569 97.3427C135.784 97.34 135.998 97.3638 136.208 97.4136" stroke="#005096" stroke-linecap="round" stroke-linejoin="round"/>
<path d="M137.542 98.547C137.542 99.2253 136.659 99.7821 135.569 99.7821C134.479 99.7821 133.595 99.2253 133.595 98.547" stroke="#005096" stroke-width="2" stroke-linecap="round" stroke-linejoin="round"/>
<path d="M136.603 91.7944H134.084V106.94H136.603V91.7944Z" fill="white"/>
<path d="M134.084 93.6775V105.897C134.084 109.451 129.442 112.336 123.747 112.336C118.052 112.336 113.409 109.451 113.409 105.897V93.6775C113.409 90.1239 118.042 87.2386 123.747 87.2386C129.451 87.2386 134.084 90.1037 134.084 93.6775Z" fill="white"/>
<path d="M134.084 93.6778C134.084 97.2313 129.442 100.117 123.747 100.117C119.555 100.117 115.947 98.5677 114.349 96.3404" stroke="#005096" stroke-linecap="round" stroke-linejoin="round"/>
<path d="M113.372 105.897V93.6775C113.372 90.1239 118.005 87.2386 123.709 87.2386C129.414 87.2386 134.047 90.1239 134.047 93.6775V105.897" stroke="#005096" stroke-width="2" stroke-linecap="round" stroke-linejoin="round"/>
<path d="M133.473 108.043C132.045 110.544 128.211 112.336 123.709 112.336C119.208 112.336 115.401 110.564 113.964 108.084" stroke="#005096" stroke-linecap="round" stroke-linejoin="round"/>
<path d="M119.264 91.6532C120.573 90.6805 122.138 90.1871 123.728 90.2459C125.332 90.1796 126.912 90.6888 128.22 91.6937" stroke="#005096" stroke-linecap="round" stroke-linejoin="round"/>
<path d="M129.244 93.6778C129.244 95.571 126.772 97.1098 123.727 97.1098C120.683 97.1098 118.211 95.571 118.211 93.6778" stroke="#005096" stroke-width="2" stroke-linecap="round" stroke-linejoin="round"/>
<path d="M117.666 69.6025L117.976 61.9285" stroke="#98A2B3" stroke-linecap="round" stroke-linejoin="round"/>
<path d="M124.752 69.6027L124.442 61.8781" stroke="#98A2B3" stroke-linecap="round" stroke-linejoin="round"/>
<path d="M175.247 38.198L170.51 33.2372" stroke="#98A2B3" stroke-linecap="round" stroke-linejoin="round"/>
<path d="M67.1715 38.1983L71.8047 33.3489" stroke="#98A2B3" stroke-linecap="round" stroke-linejoin="round"/>
<g opacity="0.4">
<path opacity="0.4" d="M245.514 79.4229L210.469 101.22L206.832 98.9521L241.877 77.1551L245.514 79.4229Z" fill="white"/>
<path opacity="0.4" d="M253.239 84.2219L218.185 106.019L214.548 103.751L249.593 81.9541L253.239 84.2219Z" fill="white"/>
<path opacity="0.4" d="M260.955 89.0209L225.91 110.818L222.264 108.55L257.318 86.7531L260.955 89.0209Z" fill="white"/>
<path opacity="0.4" d="M220.488 94.9935L210.469 101.22L206.832 98.952L216.841 92.7257L220.488 94.9935Z" fill="#98A2B3"/>
<path opacity="0.4" d="M225.816 101.28L218.185 106.019L214.548 103.751L222.17 99.0127L225.816 101.28Z" fill="#98A2B3"/>
<path opacity="0.4" d="M257.092 91.4303L225.91 110.818L222.264 108.55L253.446 89.1625L257.092 91.4303Z" fill="#98A2B3"/>
<path opacity="0.4" d="M245.514 79.4229L210.469 101.22L206.832 98.9521L241.877 77.1551L245.514 79.4229Z" stroke="#98A2B3" stroke-width="2" stroke-linecap="round" stroke-linejoin="round"/>
<path opacity="0.4" d="M253.239 84.2219L218.185 106.019L214.548 103.751L249.593 81.9541L253.239 84.2219Z" stroke="#98A2B3" stroke-width="2" stroke-linecap="round" stroke-linejoin="round"/>
<path opacity="0.4" d="M260.955 89.0209L225.91 110.818L222.264 108.55L257.318 86.7531L260.955 89.0209Z" stroke="#98A2B3" stroke-width="2" stroke-linecap="round" stroke-linejoin="round"/>
<path opacity="0.4" d="M256.669 108.155H264V105.483H256.669V100.927H252.384V105.483H245.044V108.155H252.384V112.711H256.669V108.155Z" fill="#98A2B3"/>
</g>
<path d="M79.2288 151.425V159.808L48.0843 179.175L16.9398 159.808V151.425L48.0843 132.058L79.2288 151.425Z" fill="white"/>
<path d="M19.1012 152.772L48.0842 170.793L55.2172 166.358" stroke="#98A2B3" stroke-linecap="round" stroke-linejoin="round"/>
<path d="M79.2288 151.425V159.808L48.0843 179.175L16.9398 159.808V151.425L48.0843 132.058L79.2288 151.425Z" stroke="#98A2B3" stroke-width="2" stroke-linecap="round" stroke-linejoin="round"/>
<path d="M57.4919 106.88V143.286L61.8619 146.009L66.2319 143.286V110.889L57.4919 106.88Z" fill="white"/>
<path d="M57.4919 106.88V143.286L61.8619 146.009L66.2319 143.286V110.889" stroke="#98A2B3" stroke-width="2" stroke-linecap="round" stroke-linejoin="round"/>
<path d="M61.8614 143.548V108.884" stroke="#98A2B3" stroke-linecap="round" stroke-linejoin="round"/>
<path d="M48.0843 162.784L29.8242 151.425L48.0843 140.065L66.3443 151.425L48.0843 162.784Z" fill="white" stroke="#98A2B3" stroke-width="2" stroke-linecap="round" stroke-linejoin="round"/>
<path d="M48.084 179.175V172.655" stroke="#98A2B3" stroke-linecap="round" stroke-linejoin="round"/>
<path d="M58.5629 168.474L56.4484 165.031" stroke="#98A2B3" stroke-linecap="round" stroke-linejoin="round"/>
<path d="M67.5662 157.51L69.9532 161.387" stroke="#98A2B3" stroke-linecap="round" stroke-linejoin="round"/>
<path d="M71.4565 156.265L79.2286 151.425" stroke="#98A2B3" stroke-linecap="round" stroke-linejoin="round"/>
<path d="M69.9534 161.387L58.5632 168.474L55.2176 166.358L55.0672 162.784L66.4574 155.697L71.4571 156.264L69.9534 161.387Z" stroke="#98A2B3" stroke-linecap="round" stroke-linejoin="round"/>
<path d="M31.3275 124.009V160.415L35.6975 163.139L40.0675 160.415V128.018L31.3275 124.009Z" fill="white"/>
<path d="M31.3275 124.009V160.415L35.6975 163.139L40.0675 160.415V128.018" stroke="#98A2B3" stroke-width="2" stroke-linecap="round" stroke-linejoin="round"/>
<path d="M35.6979 160.627V126.013" stroke="#98A2B3" stroke-linecap="round" stroke-linejoin="round"/>
<path d="M79.2288 109.562V117.945L48.0843 137.322L16.9398 117.945V109.562L48.0843 90.1947L79.2288 109.562Z" fill="white"/>
<path d="M79.2291 109.562L48.0846 128.939L18.9231 110.797" stroke="#98A2B3" stroke-linecap="round" stroke-linejoin="round"/>
<path d="M79.2288 109.562V117.945L48.0843 137.322L16.9398 117.945V109.562L48.0843 90.1947L79.2288 109.562Z" stroke="#98A2B3" stroke-width="2" stroke-linecap="round" stroke-linejoin="round"/>
<path d="M68.9759 109.562L48.0845 122.561L27.1931 109.562" stroke="#98A2B3" stroke-width="2" stroke-linecap="round" stroke-linejoin="round"/>
<path d="M29.4479 108.165L48.0839 96.5726L66.8232 108.225" stroke="#98A2B3" stroke-linecap="round" stroke-linejoin="round"/>
<path d="M30.5576 111.658L48.0846 100.765L63.4782 110.332" stroke="#98A2B3" stroke-linecap="round" stroke-linejoin="round"/>
<path d="M48.084 137.322V130.529" stroke="#98A2B3" stroke-linecap="round" stroke-linejoin="round"/>
<path d="M48.084 99.0328V96.5726" stroke="#98A2B3" stroke-linecap="round" stroke-linejoin="round"/>
<g opacity="0.4">
<path opacity="0.4" d="M92.9689 164.911L57.9243 186.708L54.278 184.44L89.332 162.643L92.9689 164.911Z" fill="white"/>
<path opacity="0.4" d="M100.694 169.71L65.6397 191.507L62.0027 189.239L97.0473 167.442L100.694 169.71Z" fill="white"/>
<path opacity="0.4" d="M108.409 174.509L73.3647 196.306L69.7183 194.048L104.772 172.241L108.409 174.509Z" fill="white"/>
<path opacity="0.4" d="M62.642 183.772L57.9243 186.707L54.278 184.44L59.0051 181.504L62.642 183.772Z" fill="#98A2B3"/>
<path opacity="0.4" d="M96.8218 172.119L65.6397 191.506L62.0027 189.239L93.1848 169.851L96.8218 172.119Z" fill="#98A2B3"/>
<path opacity="0.4" d="M97.0285 181.585L73.3647 196.306L69.7183 194.048L93.3915 179.328L97.0285 181.585Z" fill="#98A2B3"/>
<path opacity="0.4" d="M92.9689 164.911L57.9243 186.708L54.278 184.44L89.332 162.643L92.9689 164.911Z" stroke="#98A2B3" stroke-width="2" stroke-linecap="round" stroke-linejoin="round"/>
<path opacity="0.4" d="M100.694 169.71L65.6397 191.507L62.0027 189.239L97.0473 167.442L100.694 169.71Z" stroke="#98A2B3" stroke-width="2" stroke-linecap="round" stroke-linejoin="round"/>
<path opacity="0.4" d="M108.409 174.509L73.3647 196.306L69.7183 194.048L104.772 172.241L108.409 174.509Z" stroke="#98A2B3" stroke-width="2" stroke-linecap="round" stroke-linejoin="round"/>
<path opacity="0.4" d="M104.115 193.643H111.454V190.97H104.115V186.414H99.8293V190.97H92.499V193.643H99.8293V198.199H104.115V193.643Z" fill="#98A2B3"/>
</g>
</g>
<defs>
<clipPath id="clip0_7222_114796">
<rect width="248" height="200" fill="white" transform="translate(16)"/>
</clipPath>
</defs>
</svg>
