<?xml version="1.0" encoding="UTF-8" standalone="no"?>
<svg
   width="500"
   height="500"
   viewBox="0 0 500 500"
   fill="none"
   version="1.1"
   id="svg3"
   sodipodi:docname="mokaab-logo.svg"
   inkscape:version="1.3.2 (091e20e, 2023-11-25, custom)"
   xmlns:inkscape="http://www.inkscape.org/namespaces/inkscape"
   xmlns:sodipodi="http://sodipodi.sourceforge.net/DTD/sodipodi-0.dtd"
   xmlns="http://www.w3.org/2000/svg"
   xmlns:svg="http://www.w3.org/2000/svg">
  <defs
     id="defs3" />
  <sodipodi:namedview
     id="namedview3"
     pagecolor="#505050"
     bordercolor="#ffffff"
     borderopacity="1"
     inkscape:showpageshadow="0"
     inkscape:pageopacity="0"
     inkscape:pagecheckerboard="1"
     inkscape:deskcolor="#505050"
     inkscape:zoom="0.99805176"
     inkscape:cx="10.520496"
     inkscape:cy="383.24666"
     inkscape:window-width="1920"
     inkscape:window-height="1009"
     inkscape:window-x="-8"
     inkscape:window-y="-8"
     inkscape:window-maximized="1"
     inkscape:current-layer="svg3" />
  <path
     fill-rule="evenodd"
     clip-rule="evenodd"
     d="m 234.84575,28.042373 c -5.63862,2.978846 -21.78623,11.446161 -35.88198,18.816927 -14.09735,7.369335 -37.93384,19.838082 -52.97122,27.708769 -15.03579,7.869096 -41.48721,21.707973 -58.778922,30.753621 -44.456983,23.25625 -48.829657,25.5785 -49.220941,26.14952 -0.498966,0.7269 0.830444,1.48561 27.691273,15.78814 13.345,7.10673 37.64276,20.0684 53.99556,28.80389 66.15397,35.338 113.92398,60.78416 116.07445,61.83236 2.19978,1.07046 2.36997,1.06887 5.12487,-0.0589 3.78718,-1.54764 7.93383,-1.49356 11.69079,0.14951 l 3.06664,1.33927 58.29491,-30.04295 c 32.06299,-16.52458 78.21856,-40.30699 102.56881,-52.85033 27.67934,-14.26118 44.20233,-23.11755 44.08463,-23.6329 -0.10339,-0.45173 -8.64801,-5.18371 -18.98522,-10.51535 C 431.2622,116.95236 392.81619,97.141796 356.16437,78.263473 319.51254,59.3834 280.19489,39.131607 268.79199,33.257103 257.39069,27.38419 247.39387,22.589215 246.57949,22.601462 c -0.81438,0.01384 -6.09512,2.462065 -11.73374,5.440911 z M 25.105616,140.62661 c -0.553523,1.29633 1.292827,224.05444 1.84476,225.35077 42.582956,-21.08956 148.518874,-75.37778 209.218744,-106.35599 7.69047,-3.96056 4.12438,-5.79291 -48.14221,-33.63927 C 151.3894,206.46248 59.190878,157.26094 35.115321,144.38198 c -9.242407,-4.94512 -9.467952,-5.02942 -10.009705,-3.75537 z m 414.443524,17.12423 c -17.85589,9.22539 -65.36664,33.72515 -105.57978,54.44251 -20.10658,10.35947 -59.91094,31.64467 -76.11422,40.00001 -1.39653,0.72053 -1.6383,1.70351 -0.50103,3.53268 1.44425,4.50613 209.60079,106.34645 209.60079,106.34645 3.75537,1.88166 5.68952,0.77621 6.80452,-1.57945 1.35677,-3.52791 0.48513,-213.49932 -0.72053,-213.6552 -0.56307,-0.0732 -15.63385,1.68761 -33.48975,10.913 z"
     fill="#f1f6f9"
     id="path1"
     style="stroke-width:15.9058" />
  <path
     fill-rule="evenodd"
     clip-rule="evenodd"
     d="m 39.650871,358.12784 c 0.612375,0.64419 29.743921,16.43392 64.736769,35.08829 34.99285,18.65278 78.35694,41.77828 96.36553,51.38699 35.66408,19.03134 35.26802,18.8532 35.8804,16.10308 0.22427,-1.0132 0.40878,-47.66026 0.40878,-103.66313 V 255.22342 l -1.43153,-1.40767 m 21.49197,-0.0239 c -1.45379,1.30746 -1.48878,207.55372 -0.035,208.64009 0.77621,0.57897 9.95069,-3.94306 52.64833,-25.94401 28.44123,-14.65406 73.7522,-38.00065 100.69351,-51.88167 26.93972,-13.88262 49.18086,-25.68953 49.42104,-26.23828"
     fill="#9ba4b5"
     id="path2"
     style="stroke-width:15.9058" />
  <path
     fill-rule="evenodd"
     clip-rule="evenodd"
     d="M 16.919835,128.19779 15,131.65572 v 235.54959 l 1.969143,3.547 c 2.128201,3.83172 7.557183,6.92699 10.420075,8.1581 3.876094,2.66423 203.363962,106.39258 209.107562,110.02706 3.95101,2.43837 8.52553,3.47384 11.13886,3.09051 24.27231,-5.55909 223.3339,-111.97871 226.43713,-113.62973 2.9394,-1.55241 5.05328,-2.78193 6.86337,-5.24416 3.13981,-4.26913 3.03483,0.33084 2.83601,-123.72358 l -0.1861,-117.09879 -1.32496,-2.95213 C 478.89701,123.11587 326.3091,46.474379 250.21715,7.3326512 248.08418,6.5066609 246.37748,6.5309968 244.23974,7.5085698 m 40.84143,41.6103142 c 132.71196,68.338166 162.33023,83.650246 163.05872,84.292836 1.49037,1.31383 0.14156,2.4495 -7.69366,6.47845 -12.90918,6.6391 -120.80645,62.24274 -153.83651,79.27789 -33.00303,17.02243 -31.82282,16.52935 -35.40163,14.80198 -3.03802,-1.46493 -5.82472,-1.44903 -9.71529,0.0573 -3.83331,1.4856 1.56036,3.98441 -44.21187,-20.48036 -20.64578,-11.03388 -54.57294,-29.15223 -75.39368,-40.26086 -67.192635,-35.85018 -71.962797,-38.44283 -72.336584,-39.32083 -0.520121,-1.22157 0.49149,-1.95483 8.395102,-6.08558 C 84.456032,114.02282 128.62178,90.918 149.56341,79.949651 163.21062,72.802044 186.11503,60.81588 200.4621,53.313254 c 14.34706,-7.502626 30.09385,-15.772549 34.99284,-18.377926 5.55751,-2.9561 9.62463,-4.752665 10.81598,-4.778432 1.39017,-0.02863 11.93733,5.12343 38.81025,18.961988 z M 242.3374,46.095502 c -6.26849,2.623986 -7.73819,19.772232 -2.17433,25.376654 3.71561,3.742008 11.84349,2.602514 14.27072,-2.002704 1.66534,-3.157946 1.53333,-17.745192 -0.18132,-20.27756 -2.53539,-3.742008 -7.37395,-4.998888 -11.91507,-3.09639 z m 0.11611,37.246865 c -6.32575,2.330523 -7.87021,21.054883 -2.13297,25.877693 3.96215,3.33116 10.60761,2.48942 13.73628,-1.73788 1.88167,-2.54382 2.1791,-17.092413 0.41674,-20.433593 -1.86099,-3.530143 -7.65071,-5.315255 -12.02005,-3.70622 z m -0.31811,37.795143 c -6.05854,2.90249 -7.42803,20.75044 -1.95483,25.4697 4.34707,3.74901 11.74328,2.63401 14.26595,-2.15047 1.791,-3.39749 1.51264,-17.91793 -0.39447,-20.48672 -2.74535,-3.69859 -7.66661,-4.86814 -11.91665,-2.83251 z M 53.438053,156.0171 c 7.028791,3.7347 31.245433,16.65024 53.815817,28.7005 22.57039,12.04868 47.33578,25.26325 55.03421,29.36377 7.69843,4.09735 19.86639,10.60284 27.03993,14.45046 7.17353,3.84921 20.20042,10.79688 28.94863,15.43821 8.74821,4.63973 16.55002,9.0711 17.33736,9.84412 l 1.43153,1.40767 v 101.81964 c 0,56.00288 -0.18451,102.64993 -0.40878,103.66314 -61.10388,-30.14952 -133.58202,-67.85432 -196.982698,-102.57836 -1.14522,-1.20566 -1.827581,-207.49645 -0.688723,-208.5192 0.831876,-0.75075 1.853031,-0.29903 14.472724,6.41005 z M 459.9627,151.65731 c 0.53602,1.80373 0.41037,205.48437 -0.12884,206.70912 -0.48036,1.09909 -201.04664,105.34279 -202.76288,104.06396 -1.45379,-1.08637 -1.4188,-207.33263 0.035,-208.64009 0.53603,-0.48353 5.18849,-3.03642 10.3388,-5.6752 14.90059,-7.63321 146.31941,-75.38573 176.37668,-90.92892 13.64721,-7.05742 15.49706,-7.69206 16.14125,-5.52887 z m -218.27426,7.27852 c -4.49817,2.46699 -6.5373,18.12311 -3.05233,23.43566 3.50406,5.33959 11.95165,5.29983 15.59091,-0.0732 1.93256,-2.85191 1.88802,-17.32782 -0.0636,-20.45172 -2.47972,-3.96851 -8.13901,-5.29029 -12.47495,-2.91077 z m 1.40131,36.8761 c -5.45252,2.26658 -8.13425,13.32432 -5.3889,22.22205 2.10434,6.81565 13.19867,7.89565 16.68045,1.6208 1.71783,-3.09369 1.62399,-17.85112 -0.12883,-20.439 -2.37315,-3.50088 -7.30715,-5.00716 -11.16272,-3.40385 z m -35.50502,66.72977 c -11.75123,5.57022 -13.80309,7.45666 -13.80309,12.69286 0,5.57659 6.03468,9.2063 12.15207,7.30873 4.14029,-1.2836 15.49387,-7.75728 16.55161,-9.43693 5.73565,-9.1061 -3.76491,-15.84222 -14.90059,-10.56466 z m 67.22444,-1.31701 c -7.4996,3.3291 -7.16081,10.88755 0.68873,15.4064 13.13504,7.56323 19.60872,8.40942 23.24638,3.03961 3.1939,-4.71608 1.1484,-9.74551 -5.42866,-13.34659 -11.29792,-6.1826 -14.2405,-6.99221 -18.50645,-5.09942 z m -102.1473,19.58168 c -15.40799,7.20217 -19.45284,15.13441 -10.05567,19.71688 5.60044,2.73104 22.27135,-4.06394 25.21393,-10.27517 3.96056,-8.36647 -5.22347,-14.08621 -15.15826,-9.44171 z m 137.38669,-0.15269 c -9.07269,5.54955 -1.2327,16.58979 14.89423,20.97344 8.5812,2.33179 15.57182,-7.67775 9.45443,-13.53746 -6.39892,-6.13011 -19.79322,-10.2195 -24.34866,-7.43598 z m -175.77544,20.17815 c -10.24018,5.26801 -11.25974,6.27644 -11.33927,11.2327 -0.13043,8.1931 7.39622,10.35152 17.68093,5.07237 10.80166,-5.54636 12.44791,-7.07969 12.44791,-11.59058 0,-8.32353 -7.91633,-10.31017 -18.78957,-4.71449 z m 215.18534,-2.69604 c -6.82996,1.75759 -9.36695,9.0536 -4.71926,13.56768 3.17322,3.08255 15.84858,8.97566 19.30492,8.97566 7.56959,0 11.50469,-7.03515 7.34213,-13.12868 -2.57356,-3.7665 -18.05312,-10.41196 -21.92779,-9.41466 z m -246.80933,19.3574 c -13.246382,6.27009 -15.112137,7.91475 -15.116908,13.31478 -0.0048,6.82997 7.00016,9.97933 14.377288,6.46573 12.47813,-5.94402 15.49547,-8.38556 15.68634,-12.68809 0.31653,-7.13377 -7.2642,-10.73008 -14.94672,-7.09242 z m 281.68448,0.01 c -7.67139,3.17003 -7.39781,10.93367 0.54239,15.41912 13.88898,7.84794 20.34039,8.49372 23.77446,2.38269 3.06346,-5.44934 0.47876,-9.40512 -9.45125,-14.45681 -9.34468,-4.75426 -10.711,-5.06124 -14.8656,-3.345 z M 70.034207,334.7892 c -3.693336,0.98458 -15.204393,7.63004 -16.691589,9.63576 -4.296167,5.79927 0.008,12.65628 7.946558,12.65628 3.115954,0 13.709244,-4.87355 17.89407,-8.23286 7.428028,-5.9631 0.488309,-16.62638 -9.149039,-14.05918 z m 350.060503,1.73056 c -10.24177,4.86401 -5.92334,12.58947 11.45379,20.48831 10.06045,4.57452 19.41467,-5.35549 11.79578,-12.52107 -6.55162,-6.16193 -18.46032,-10.24337 -23.24957,-7.96724 z"
     fill="#394867"
     id="path3"
     style="stroke-width:15.9058" />
</svg>
